<svg width="35" height="35" fill="none" xmlns="http://www.w3.org/2000/svg"><path d="M30.548 12.112a9.522 9.522 0 0 0-.611-3.232 6.723 6.723 0 0 0-3.84-3.84 9.634 9.634 0 0 0-3.188-.612c-1.403-.063-1.848-.08-5.409-.08s-4.018 0-5.41.08a9.634 9.634 0 0 0-3.187.612 6.719 6.719 0 0 0-3.84 3.84 9.558 9.558 0 0 0-.61 3.186c-.063 1.405-.082 1.85-.082 5.41 0 3.562 0 4.017.081 5.411a9.619 9.619 0 0 0 .611 3.19 6.723 6.723 0 0 0 3.842 3.838 9.602 9.602 0 0 0 3.186.656c1.404.063 1.85.082 5.41.082 3.562 0 4.018 0 5.41-.082a9.61 9.61 0 0 0 3.189-.61 6.73 6.73 0 0 0 3.84-3.84c.383-1.021.589-2.098.61-3.19.063-1.403.082-1.848.082-5.41-.003-3.562-.003-4.014-.084-5.41Zm-13.057 12.1a6.74 6.74 0 0 1-6.742-6.742 6.74 6.74 0 0 1 11.51-4.768 6.742 6.742 0 0 1-4.768 11.51Zm7.01-12.162a1.57 1.57 0 1 1-.003-3.141 1.57 1.57 0 0 1 .003 3.141Z" fill="#000"/><path d="M17.491 21.849a4.38 4.38 0 1 0 0-8.759 4.38 4.38 0 0 0 0 8.759Z" fill="#000"/></svg>