<svg width="25" height="25" fill="none" xmlns="http://www.w3.org/2000/svg"><g clip-path="url(#a)"><path d="M9.375.434A1.2 1.2 0 0 1 9.5 1.775a11.262 11.262 0 0 0-1.372 5.406c0 6.283 5.122 11.37 11.434 11.37.824 0 1.625-.085 2.396-.25a1.23 1.23 0 0 1 1.265.494 1.145 1.145 0 0 1-.048 1.396A13.045 13.045 0 0 1 13.037 25C5.834 25 0 19.197 0 12.047 0 6.666 3.303 2.05 8.006.094a1.175 1.175 0 0 1 1.369.34Z" fill="#000"/></g><defs><clipPath id="a"><path fill="#fff" d="M0 0h25v25H0z"/></clipPath></defs></svg>