<svg width="25" height="25" viewBox="0 0 25 25" fill="none" xmlns="http://www.w3.org/2000/svg">
<g clip-path="url(#clip0_41_2)">
<path d="M9.375 0.434353C9.52752 0.619685 9.62096 0.846497 9.64324 1.08548C9.66553 1.32447 9.61563 1.56464 9.5 1.77498C8.59665 3.43353 8.1249 5.29262 8.12813 7.18123C8.12813 13.464 13.25 18.5515 19.5625 18.5515C20.3859 18.5515 21.1875 18.4656 21.9578 18.3015C22.1939 18.2504 22.4399 18.27 22.665 18.3578C22.8901 18.4456 23.0843 18.5978 23.2234 18.7953C23.3703 19.0007 23.4452 19.2488 23.4364 19.5012C23.4276 19.7535 23.3357 19.9959 23.175 20.1906C21.9495 21.696 20.4035 22.9089 18.6497 23.7409C16.896 24.5729 14.9786 25.0031 13.0375 25C5.83437 25 0 19.1969 0 12.0469C0 6.6656 3.30313 2.04998 8.00625 0.0937281C8.24053 -0.0052846 8.50061 -0.0256065 8.74742 0.0358151C8.99424 0.0972367 9.21445 0.237085 9.375 0.434353Z" fill="black"/>
</g>
<defs>
<clipPath id="clip0_41_2">
<rect width="25" height="25" fill="white"/>
</clipPath>
</defs>
</svg>
