<svg width="25" height="25" viewBox="0 0 25 25" fill="none" xmlns="http://www.w3.org/2000/svg">
<path d="M25 12.5C25 12.5 20.3125 3.90625 12.5 3.90625C4.6875 3.90625 0 12.5 0 12.5C0 12.5 4.6875 21.0938 12.5 21.0938C20.3125 21.0938 25 12.5 25 12.5ZM1.83281 12.5C2.5883 11.3518 3.45725 10.2823 4.42656 9.30781C6.4375 7.29375 9.1875 5.46875 12.5 5.46875C15.8125 5.46875 18.5609 7.29375 20.575 9.30781C21.5443 10.2823 22.4133 11.3518 23.1688 12.5C23.0781 12.6359 22.9781 12.7859 22.8641 12.95C22.3406 13.7 21.5672 14.7 20.575 15.6922C18.5609 17.7063 15.8109 19.5312 12.5 19.5312C9.1875 19.5312 6.43906 17.7063 4.425 15.6922C3.4557 14.7177 2.58675 13.6482 1.83125 12.5H1.83281Z" fill="black" fill-opacity="0.75"/>
<path d="M12.5 8.59375C11.464 8.59375 10.4704 9.0053 9.73786 9.73786C9.0053 10.4704 8.59375 11.464 8.59375 12.5C8.59375 13.536 9.0053 14.5296 9.73786 15.2621C10.4704 15.9947 11.464 16.4062 12.5 16.4062C13.536 16.4062 14.5296 15.9947 15.2621 15.2621C15.9947 14.5296 16.4062 13.536 16.4062 12.5C16.4062 11.464 15.9947 10.4704 15.2621 9.73786C14.5296 9.0053 13.536 8.59375 12.5 8.59375ZM7.03125 12.5C7.03125 11.0496 7.60742 9.6586 8.63301 8.63301C9.6586 7.60742 11.0496 7.03125 12.5 7.03125C13.9504 7.03125 15.3414 7.60742 16.367 8.63301C17.3926 9.6586 17.9688 11.0496 17.9688 12.5C17.9688 13.9504 17.3926 15.3414 16.367 16.367C15.3414 17.3926 13.9504 17.9688 12.5 17.9688C11.0496 17.9688 9.6586 17.3926 8.63301 16.367C7.60742 15.3414 7.03125 13.9504 7.03125 12.5Z" fill="black" fill-opacity="0.75"/>
</svg>
