<svg width="31" height="29" viewBox="0 0 31 29" fill="none" xmlns="http://www.w3.org/2000/svg">
<path d="M15.5 0C7.2125 0 0.5 6.56333 0.5 14.6667C0.5 21.1567 4.79375 26.6383 10.7562 28.5817C11.5062 28.71 11.7875 28.27 11.7875 27.885C11.7875 27.5367 11.7688 26.3817 11.7688 25.1533C8 25.8317 7.025 24.255 6.725 23.43C6.55625 23.0083 5.825 21.7067 5.1875 21.3583C4.6625 21.0833 3.9125 20.405 5.16875 20.3867C6.35 20.3683 7.19375 21.45 7.475 21.89C8.825 24.1083 10.9813 23.485 11.8438 23.1C11.975 22.1467 12.3687 21.505 12.8 21.1383C9.4625 20.7717 5.975 19.5067 5.975 13.8967C5.975 12.3017 6.55625 10.9817 7.5125 9.955C7.3625 9.58833 6.8375 8.085 7.6625 6.06833C7.6625 6.06833 8.91875 5.68333 11.7875 7.57167C12.9875 7.24167 14.2625 7.07667 15.5375 7.07667C16.8125 7.07667 18.0875 7.24167 19.2875 7.57167C22.1562 5.665 23.4125 6.06833 23.4125 6.06833C24.2375 8.085 23.7125 9.58833 23.5625 9.955C24.5188 10.9817 25.1 12.2833 25.1 13.8967C25.1 19.525 21.5938 20.7717 18.2563 21.1383C18.8 21.5967 19.2688 22.4767 19.2688 23.8517C19.2688 25.8133 19.25 27.39 19.25 27.885C19.25 28.27 19.5312 28.7283 20.2812 28.5817C23.2592 27.599 25.8469 25.7278 27.68 23.2316C29.5132 20.7353 30.4995 17.7398 30.5 14.6667C30.5 6.56333 23.7875 0 15.5 0Z" fill="#0099FF"/>
</svg>
