<svg width="469" height="477" fill="none" xmlns="http://www.w3.org/2000/svg"><g clip-path="url(#a)"><path d="M376.658 382.034c-48.813 0-95.626-18.783-130.142-52.217-34.516-33.435-53.907-78.782-53.907-126.065 0-47.284 19.391-92.631 53.907-126.065 34.516-33.435 81.329-52.218 130.142-52.218s95.627 18.783 130.143 52.218c34.515 33.434 53.906 78.781 53.906 126.065 0 47.283-19.391 92.63-53.906 126.065-34.516 33.434-81.33 52.217-130.143 52.217Zm0 25.469c55.786 0 109.288-21.466 148.734-59.677C564.839 309.615 587 257.79 587 203.752c0-54.039-22.161-105.864-61.608-144.075C485.946 21.468 432.444 0 376.658 0c-55.786 0-109.287 21.467-148.734 59.678-39.446 38.21-61.607 90.035-61.607 144.074 0 54.038 22.161 105.863 61.607 144.074 39.447 38.211 92.948 59.677 148.734 59.677Z" fill="#09F" fill-opacity=".3"/></g><g clip-path="url(#b)"><path d="M359.334 351.136c2.297 0 4.5.884 6.125 2.458a8.259 8.259 0 0 1 2.537 5.933v100.691c0 2.226-.913 4.36-2.537 5.933a8.806 8.806 0 0 1-6.125 2.458H255.386a8.803 8.803 0 0 1-6.125-2.458 8.256 8.256 0 0 1-2.538-5.933V359.527c0-2.226.913-4.36 2.538-5.933a8.803 8.803 0 0 1 6.125-2.458h103.948Zm-103.948-8.391c-4.595 0-9.002 1.768-12.251 4.915-3.249 3.148-5.074 7.416-5.074 11.867v100.691c0 4.451 1.825 8.719 5.074 11.867 3.249 3.147 7.656 4.915 12.251 4.915h103.948c4.594 0 9.001-1.768 12.25-4.915 3.249-3.148 5.074-7.416 5.074-11.867V359.527c0-4.451-1.825-8.719-5.074-11.867-3.249-3.147-7.656-4.915-12.25-4.915H255.386Z" fill="#D9D9D9"/></g><g clip-path="url(#c)" fill="#09F"><path d="M289.627 132.182c5.487 0 10.749 2.111 14.629 5.869 3.879 3.758 6.059 8.856 6.059 14.17v240.475c0 5.315-2.18 10.412-6.059 14.17-3.88 3.758-9.142 5.869-14.629 5.869H41.375c-5.486 0-10.748-2.111-14.628-5.869-3.88-3.758-6.06-8.855-6.06-14.17V152.221c0-5.314 2.18-10.412 6.06-14.17 3.88-3.758 9.142-5.869 14.628-5.869h248.252Zm-248.252-20.04c-10.973 0-21.497 4.223-29.256 11.739C4.359 131.397 0 141.592 0 152.221v240.475c0 10.629 4.36 20.824 12.119 28.34 7.759 7.516 18.283 11.739 29.256 11.739h248.252c10.974 0 21.498-4.223 29.257-11.739 7.76-7.516 12.119-17.711 12.119-28.34V152.221c0-10.629-4.359-20.824-12.119-28.34-7.759-7.516-18.283-11.739-29.257-11.739H41.375Z"/><path d="M141.793 205.246a9.984 9.984 0 0 1 2.249 3.254 9.736 9.736 0 0 1 0 7.68 9.995 9.995 0 0 1-2.249 3.254l-54.76 53.024 54.76 53.025c1.943 1.882 3.034 4.433 3.034 7.094 0 2.661-1.091 5.213-3.034 7.094-1.942 1.882-4.576 2.938-7.323 2.938-2.747 0-5.381-1.056-7.324-2.938l-62.063-60.119a9.998 9.998 0 0 1-2.249-3.253 9.753 9.753 0 0 1-.79-3.841c0-1.317.269-2.622.79-3.84a9.998 9.998 0 0 1 2.25-3.253l62.062-60.119a10.381 10.381 0 0 1 3.359-2.179 10.64 10.64 0 0 1 7.929 0 10.37 10.37 0 0 1 3.359 2.179Zm47.416 0a10.015 10.015 0 0 0-2.249 3.254 9.753 9.753 0 0 0 0 7.68 10.025 10.025 0 0 0 2.249 3.254l54.761 53.024-54.761 53.025c-1.942 1.882-3.033 4.433-3.033 7.094 0 2.661 1.091 5.213 3.033 7.094 1.943 1.882 4.577 2.938 7.324 2.938s5.381-1.056 7.323-2.938l62.063-60.119a9.98 9.98 0 0 0 2.249-3.253 9.745 9.745 0 0 0 0-7.681 9.98 9.98 0 0 0-2.249-3.253l-62.063-60.119a10.37 10.37 0 0 0-3.359-2.179 10.64 10.64 0 0 0-7.929 0 10.381 10.381 0 0 0-3.359 2.179Z"/></g><defs><clipPath id="a"><path fill="#fff" transform="translate(166.317)" d="M0 0h420.683v407.503H0z"/></clipPath><clipPath id="b"><path fill="#fff" transform="translate(238.061 342.745)" d="M0 0h138.597v134.255H0z"/></clipPath><clipPath id="c"><path fill="#fff" transform="translate(0 112.142)" d="M0 0h331.003v320.632H0z"/></clipPath></defs></svg>