<svg width="127" height="23" fill="none" xmlns="http://www.w3.org/2000/svg"><path d="M10.82 22.42c-2.13 0-4.005-.45-5.625-1.35A9.723 9.723 0 0 1 1.4 17.26C.5 15.62.05 13.7.05 11.5c0-2.2.465-4.115 1.395-5.745a9.844 9.844 0 0 1 3.87-3.81C6.955 1.035 8.83.58 10.94.58c1.11 0 2.125.12 3.045.36.92.23 1.715.52 2.385.87l-.42 3.66c-.76-.35-1.545-.635-2.355-.855-.8-.23-1.695-.345-2.685-.345-1.47 0-2.7.31-3.69.93C6.24 5.82 5.5 6.675 5 7.765c-.5 1.09-.75 2.335-.75 3.735s.245 2.645.735 3.735c.49 1.09 1.22 1.945 2.19 2.565.98.62 2.195.93 3.645.93 1.01 0 1.915-.11 2.715-.33.8-.22 1.605-.51 2.415-.87l.42 3.66c-.79.37-1.66.665-2.61.885-.94.23-1.92.345-2.94.345Zm19.998 0c-2 0-3.78-.45-5.34-1.35-1.56-.91-2.785-2.18-3.675-3.81-.89-1.64-1.335-3.56-1.335-5.76 0-2.2.445-4.115 1.335-5.745.89-1.64 2.115-2.91 3.675-3.81 1.56-.91 3.34-1.365 5.34-1.365s3.78.455 5.34 1.365c1.56.9 2.785 2.17 3.675 3.81.89 1.63 1.335 3.545 1.335 5.745s-.445 4.12-1.335 5.76c-.89 1.63-2.115 2.9-3.675 3.81-1.56.9-3.34 1.35-5.34 1.35Zm0-3.72c1.4 0 2.57-.31 3.51-.93.94-.62 1.645-1.47 2.115-2.55.47-1.09.705-2.33.705-3.72 0-1.39-.235-2.625-.705-3.705-.47-1.09-1.175-1.945-2.115-2.565-.94-.62-2.11-.93-3.51-.93s-2.57.31-3.51.93c-.94.62-1.645 1.475-2.115 2.565-.47 1.08-.705 2.315-.705 3.705 0 1.39.235 2.63.705 3.72.47 1.08 1.175 1.93 2.115 2.55.94.62 2.11.93 3.51.93ZM46.92 22V1h7.86c2 0 3.78.42 5.34 1.26 1.56.83 2.786 2.03 3.675 3.6.89 1.56 1.335 3.44 1.335 5.64 0 2.2-.444 4.085-1.334 5.655a9.157 9.157 0 0 1-3.675 3.6c-1.56.83-3.34 1.245-5.34 1.245h-7.86Zm3.84-3.42h4.02c1.36 0 2.495-.285 3.405-.855.91-.57 1.596-1.385 2.055-2.445.46-1.06.69-2.32.69-3.78s-.23-2.72-.69-3.78c-.46-1.06-1.145-1.875-2.055-2.445-.91-.57-2.044-.855-3.404-.855h-4.02v14.16ZM70.912 22V1h3.84v21h-3.84Zm19.327.42c-1.97 0-3.6-.39-4.89-1.17-1.28-.78-2.235-1.875-2.865-3.285-.63-1.41-.945-3.065-.945-4.965V1h3.84v11.01c0 1 .065 1.915.195 2.745.13.82.365 1.53.705 2.13.35.59.845 1.045 1.485 1.365.64.32 1.465.48 2.475.48s1.835-.16 2.475-.48c.64-.32 1.13-.775 1.47-1.365.35-.6.59-1.31.72-2.13.13-.83.195-1.745.195-2.745V1h3.84v12c0 1.9-.315 3.555-.945 4.965-.63 1.41-1.59 2.505-2.88 3.285-1.28.78-2.905 1.17-4.875 1.17Zm14.22-.42 2.91-21h3.15l5.13 9.57 5.1-9.57h3.15l2.91 21h-3.99l-2.01-15.78 1.05.21-6.21 11.16-6.24-11.13 1.05-.21-2.01 15.75h-3.99Z" fill="#333"/></svg>