<svg width="30" height="30" viewBox="0 0 30 30" fill="none" xmlns="http://www.w3.org/2000/svg">
<path d="M30 14.6667C30 18.5565 28.4196 22.287 25.6066 25.0376C22.7936 27.7881 18.9782 29.3333 15 29.3333C11.0218 29.3333 7.20644 27.7881 4.3934 25.0376C1.58035 22.287 0 18.5565 0 14.6667C0 10.7768 1.58035 7.0463 4.3934 4.29577C7.20644 1.54523 11.0218 0 15 0C18.9782 0 22.7936 1.54523 25.6066 4.29577C28.4196 7.0463 30 10.7768 30 14.6667ZM15.5381 10.8277C14.0794 11.4217 11.1619 12.65 6.78938 14.5127C6.08063 14.7877 5.7075 15.059 5.67375 15.323C5.6175 15.7685 6.18938 15.9445 6.9675 16.1847L7.29563 16.2855C8.06063 16.5293 9.09188 16.8135 9.62625 16.8245C10.1137 16.8355 10.6556 16.6412 11.2537 16.2378C15.3394 13.541 17.4488 12.1788 17.58 12.1495C17.6737 12.1275 17.805 12.1018 17.8913 12.1788C17.9794 12.254 17.97 12.3988 17.9606 12.4373C17.9044 12.6738 15.66 14.7125 14.4994 15.7685C14.1375 16.0985 13.8806 16.3313 13.8281 16.3845C13.7125 16.5 13.595 16.6137 13.4756 16.7255C12.7631 17.3965 12.2306 17.8988 13.5037 18.7202C14.1169 19.1162 14.6081 19.4407 15.0975 19.767C15.63 20.1227 16.1625 20.4765 16.8525 20.9202C17.0269 21.0302 17.1956 21.1493 17.3588 21.263C17.9794 21.6957 18.54 22.0843 19.2281 22.022C19.6294 21.9853 20.0438 21.6187 20.2537 20.5187C20.7506 17.9208 21.7275 12.2943 21.9525 9.97517C21.9662 9.78238 21.9581 9.58869 21.9281 9.39767C21.9105 9.24352 21.8342 9.10151 21.7144 8.99983C21.5438 8.88468 21.3404 8.82502 21.1331 8.82933C20.5706 8.8385 19.7025 9.13367 15.5381 10.8277Z" fill="#0099FF"/>
</svg>
