<svg width="31" height="25" viewBox="0 0 31 25" fill="none" xmlns="http://www.w3.org/2000/svg">
<path d="M9.92375 24.0333C21.245 24.0333 27.4381 14.8612 27.4381 6.921C27.4381 6.66433 27.4381 6.404 27.4269 6.14733C28.6326 5.29389 29.6732 4.23728 30.5 3.027C29.3737 3.51256 28.1802 3.83258 26.9581 3.97667C28.2454 3.22434 29.2095 2.04061 29.6712 0.645501C28.4619 1.34606 27.1382 1.83785 25.7581 2.09933C24.8303 1.13321 23.6026 0.493184 22.2652 0.27839C20.9277 0.0635962 19.5551 0.286024 18.36 0.91122C17.1649 1.53642 16.214 2.52949 15.6546 3.73661C15.0952 4.94374 14.9585 6.29754 15.2656 7.58834C12.8183 7.46835 10.424 6.84669 8.2382 5.7637C6.05238 4.6807 4.12378 3.16055 2.5775 1.30183C1.79251 2.62749 1.55295 4.19557 1.90746 5.68766C2.26197 7.17974 3.18398 8.48397 4.48625 9.3355C3.51039 9.30308 2.55598 9.04686 1.7 8.5875V8.67C1.70168 10.0587 2.1937 11.4043 3.09289 12.4792C3.99208 13.5542 5.24328 14.2926 6.635 14.5697C6.10674 14.712 5.56106 14.7829 5.01312 14.7805C4.62684 14.7816 4.24134 14.7467 3.86188 14.676C4.25522 15.8714 5.02114 16.9166 6.05234 17.6652C7.08354 18.4138 8.32838 18.8282 9.6125 18.8505C7.43104 20.5258 4.73638 21.4344 1.9625 21.43C1.47373 21.432 0.985293 21.4045 0.5 21.3475C3.31534 23.1025 6.58493 24.0343 9.92375 24.0333Z" fill="#0099FF"/>
</svg>
