<svg width="23" height="24" viewBox="0 0 23 24" fill="none" xmlns="http://www.w3.org/2000/svg">
<path fill-rule="evenodd" clip-rule="evenodd" d="M0.790618 7.58439C0.717863 7.51181 0.660139 7.4256 0.620754 7.33069C0.581369 7.23577 0.561096 7.13402 0.561096 7.03126C0.561096 6.9285 0.581369 6.82675 0.620754 6.73183C0.660139 6.63692 0.717863 6.55071 0.790618 6.47814L7.04062 0.228135C7.18731 0.0814374 7.38628 -0.000976562 7.59374 -0.000976562C7.8012 -0.000976563 8.00017 0.0814374 8.14687 0.228135C8.29357 0.374833 8.37598 0.573798 8.37598 0.78126C8.37598 0.988723 8.29357 1.18769 8.14687 1.33439L3.22968 6.25001H18.5312C19.5672 6.25001 20.5608 6.66156 21.2934 7.39412C22.0259 8.12669 22.4375 9.12026 22.4375 10.1563V22.6563C22.4375 22.8635 22.3552 23.0622 22.2087 23.2087C22.0622 23.3552 21.8634 23.4375 21.6562 23.4375C21.449 23.4375 21.2503 23.3552 21.1038 23.2087C20.9573 23.0622 20.875 22.8635 20.875 22.6563V10.1563C20.875 9.53466 20.6281 8.93852 20.1885 8.49898C19.749 8.05944 19.1528 7.81251 18.5312 7.81251H3.22968L8.14687 12.7281C8.2195 12.8008 8.27712 12.887 8.31644 12.9819C8.35575 13.0768 8.37598 13.1785 8.37598 13.2813C8.37598 13.384 8.35575 13.4857 8.31644 13.5806C8.27712 13.6755 8.2195 13.7617 8.14687 13.8344C8.07423 13.907 7.988 13.9646 7.89309 14.004C7.79819 14.0433 7.69647 14.0635 7.59374 14.0635C7.49102 14.0635 7.3893 14.0433 7.29439 14.004C7.19949 13.9646 7.11325 13.907 7.04062 13.8344L0.790618 7.58439Z" fill="#E5E5E5"/>
</svg>
