<svg width="23" height="24" viewBox="0 0 23 24" fill="none" xmlns="http://www.w3.org/2000/svg">
<path fill-rule="evenodd" clip-rule="evenodd" d="M22.2094 7.58439C22.2821 7.51181 22.3399 7.4256 22.3792 7.33069C22.4186 7.23577 22.4389 7.13402 22.4389 7.03126C22.4389 6.9285 22.4186 6.82675 22.3792 6.73183C22.3399 6.63692 22.2821 6.55071 22.2094 6.47814L15.9594 0.228135C15.8127 0.0814374 15.6137 -0.000976567 15.4062 -0.000976562C15.1988 -0.000976558 14.9998 0.0814374 14.8531 0.228135C14.7064 0.374833 14.624 0.573798 14.624 0.78126C14.624 0.988722 14.7064 1.18769 14.8531 1.33439L19.7703 6.25001H4.46875C3.43275 6.25001 2.43918 6.66156 1.70661 7.39412C0.97405 8.12669 0.5625 9.12026 0.5625 10.1563V22.6563C0.5625 22.8635 0.64481 23.0622 0.791323 23.2087C0.937836 23.3552 1.13655 23.4375 1.34375 23.4375C1.55095 23.4375 1.74966 23.3552 1.89618 23.2087C2.04269 23.0622 2.125 22.8635 2.125 22.6563V10.1563C2.125 9.53466 2.37193 8.93852 2.81147 8.49898C3.25101 8.05944 3.84715 7.81251 4.46875 7.81251H19.7703L14.8531 12.7281C14.7064 12.8748 14.624 13.0738 14.624 13.2813C14.624 13.4887 14.7064 13.6877 14.8531 13.8344C14.9998 13.9811 15.1988 14.0635 15.4062 14.0635C15.6137 14.0635 15.8127 13.9811 15.9594 13.8344L22.2094 7.58439Z" fill="#E5E5E5"/>
</svg>
