<?xml version="1.0" standalone="no"?><svg xmlns="http://www.w3.org/2000/svg" viewBox="0 0 1440 320"><path fill="#0099ff" fill-opacity="0.8" d="M0,96L18.5,90.7C36.9,85,74,75,111,96C147.7,117,185,171,222,176C258.5,181,295,139,332,144C369.2,149,406,203,443,218.7C480,235,517,213,554,176C590.8,139,628,85,665,90.7C701.5,96,738,160,775,186.7C812.3,213,849,203,886,181.3C923.1,160,960,128,997,96C1033.8,64,1071,32,1108,58.7C1144.6,85,1182,171,1218,202.7C1255.4,235,1292,213,1329,197.3C1366.2,181,1403,171,1422,165.3L1440,160L1440,320L1421.5,320C1403.1,320,1366,320,1329,320C1292.3,320,1255,320,1218,320C1181.5,320,1145,320,1108,320C1070.8,320,1034,320,997,320C960,320,923,320,886,320C849.2,320,812,320,775,320C738.5,320,702,320,665,320C627.7,320,591,320,554,320C516.9,320,480,320,443,320C406.2,320,369,320,332,320C295.4,320,258,320,222,320C184.6,320,148,320,111,320C73.8,320,37,320,18,320L0,320Z"></path></svg>