<svg width="64" height="43" viewBox="0 0 64 43" fill="none" xmlns="http://www.w3.org/2000/svg">
<path d="M23.85 7.14999C23.95 7.14999 23.55 7.74999 22.65 8.95C21.75 10.15 20.7 11.65 19.5 13.45C18.4 15.15 17.45 16.85 16.65 18.55C19.95 19.45 22.3 21 23.7 23.2C25.2 25.4 25.95 27.65 25.95 29.95C25.95 33.65 24.75 36.65 22.35 38.95C19.95 41.25 16.85 42.4 13.05 42.4C9.65 42.4 6.65 41.1 4.05 38.5C1.45 35.8 0.15 32.7 0.15 29.2C0.15 25.9 0.85 22.75 2.25 19.75C3.75 16.75 5.55 14 7.65 11.5C9.75 8.99999 11.75 6.84999 13.65 5.04999C15.65 3.14999 17.15 1.69999 18.15 0.699994L23.85 7.14999ZM39.9984 35.95C39.9984 35.95 40.4484 35.35 41.3484 34.15C42.2484 32.95 43.2984 31.5 44.4984 29.8C45.6984 28 46.6484 26.3 47.3484 24.7C43.9484 23.8 41.5484 22.25 40.1484 20.05C38.7484 17.85 38.0484 15.55 38.0484 13.15C38.0484 9.44999 39.2484 6.49999 41.6484 4.29999C44.1484 1.99999 47.2484 0.849992 50.9484 0.849992C54.2484 0.849992 57.1984 2.14999 59.7984 4.75C62.4984 7.35 63.8484 10.45 63.8484 14.05C63.8484 17.35 63.0984 20.5 61.5984 23.5C60.1984 26.5 58.4484 29.25 56.3484 31.75C54.2484 34.15 52.1984 36.3 50.1984 38.2C48.1984 40 46.6984 41.4 45.6984 42.4L39.9984 35.95Z" fill="white"/>
</svg>
